HIERARCHY
ROOT Root
{
  OFFSET 0.0 0.0 0.0
  CHANNELS 6 Xposition Yposition Zposition Zrotation Yrotation Xrotation
  JOINT Hips
  {
    OFFSET 0.0 100.0 0.0
    CHANNELS 6 Xposition Yposition Zposition Zrotation Yrotation Xrotation
    JOINT Spine1
    {
      OFFSET -0.013727 5.003763 -0.053727
      CHANNELS 3 Zrotation Yrotation Xrotation
      JOINT Spine2
      {
        OFFSET -0.0 7.125301 -0.029825
        CHANNELS 3 Zrotation Yrotation Xrotation
        JOINT Chest
        {
          OFFSET -1e-06 7.550063 -0.815971
          CHANNELS 3 Zrotation Yrotation Xrotation
          JOINT Neck1
          {
            OFFSET -0.181677 26.311295 -0.553348
            CHANNELS 3 Zrotation Yrotation Xrotation
            JOINT Neck2
            {
              OFFSET -3e-06 7.709397 2.302585
              CHANNELS 3 Zrotation Yrotation Xrotation
              JOINT Head
              {
                OFFSET -5e-06 6.128916 1.953709
                CHANNELS 3 Zrotation Yrotation Xrotation
                JOINT HeadEnd
                {
                  OFFSET 0.003598 16.065403 -1.835379
                  CHANNELS 3 Zrotation Yrotation Xrotation
                }
                JOINT Jaw
                {
                  OFFSET 0.002637 0.475592 3.094941
                  CHANNELS 3 Zrotation Yrotation Xrotation
                }
                JOINT LeftEye
                {
                  OFFSET 3.206381 5.380205 7.586883
                  CHANNELS 3 Zrotation Yrotation Xrotation
                }
                JOINT RightEye
                {
                  OFFSET -3.22244 5.361869 7.558234
                  CHANNELS 3 Zrotation Yrotation Xrotation
                }
              }
            }
          }
          JOINT LeftShoulder
          {
            OFFSET 1.621652 23.237164 5.113413
            CHANNELS 3 Zrotation Yrotation Xrotation
            JOINT LeftArm
            {
              OFFSET 14.919846 2e-06 -5.502326
              CHANNELS 3 Zrotation Yrotation Xrotation
              JOINT LeftForeArm
              {
                OFFSET 28.739307 0.0 -0.002588
                CHANNELS 3 Zrotation Yrotation Xrotation
                JOINT LeftHand
                {
                  OFFSET 27.093981 -1e-06 0.002609
                  CHANNELS 3 Zrotation Yrotation Xrotation
                  JOINT LeftHandThumb1
                  {
                    OFFSET 2.276482 -1.392045 3.191413
                    CHANNELS 3 Zrotation Yrotation Xrotation
                    JOINT LeftHandThumb2
                    {
                      OFFSET 4.012836 -1.828127 1.641654
                      CHANNELS 3 Zrotation Yrotation Xrotation
                      JOINT LeftHandThumb3
                      {
                        OFFSET 2.798515 0.0 -3e-06
                        CHANNELS 3 Zrotation Yrotation Xrotation
                        JOINT LeftHandThumbEnd
                        {
                          OFFSET 3.180793 -4e-06 4e-06
                          CHANNELS 3 Zrotation Yrotation Xrotation
                        }
                      }
                    }
                  }
                  JOINT LeftHandIndex1
                  {
                    OFFSET 3.247555 -0.531998 2.296169
                    CHANNELS 3 Zrotation Yrotation Xrotation
                    JOINT LeftHandIndex2
                    {
                      OFFSET 6.364578 0.01206 0.1786
                      CHANNELS 3 Zrotation Yrotation Xrotation
                      JOINT LeftHandIndex3
                      {
                        OFFSET 3.662364 0.0 0.0
                        CHANNELS 3 Zrotation Yrotation Xrotation
                        JOINT LeftHandIndex4
                        {
                          OFFSET 2.329242 4e-06 4e-06
                          CHANNELS 3 Zrotation Yrotation Xrotation
                          JOINT LeftHandIndexEnd
                          {
                            OFFSET 2.759615 -0.180537 -0.113024
                            CHANNELS 3 Zrotation Yrotation Xrotation
                          }
                        }
                      }
                    }
                  }
                  JOINT LeftHandMiddle1
                  {
                    OFFSET 3.163495 0.240981 1.000332
                    CHANNELS 3 Zrotation Yrotation Xrotation
                    JOINT LeftHandMiddle2
                    {
                      OFFSET 6.19078 -0.259278 -1.002548
                      CHANNELS 3 Zrotation Yrotation Xrotation
                      JOINT LeftHandMiddle3
                      {
                        OFFSET 4.35652 -4e-06 -1e-06
                        CHANNELS 3 Zrotation Yrotation Xrotation
                        JOINT LeftHandMiddle4
                        {
                          OFFSET 2.996877 -8e-06 0.0
                          CHANNELS 3 Zrotation Yrotation Xrotation
                          JOINT LeftHandMiddleEnd
                          {
                            OFFSET 2.304287 -0.294569 -0.031741
                            CHANNELS 3 Zrotation Yrotation Xrotation
                          }
                        }
                      }
                    }
                  }
                  JOINT LeftHandRing1
                  {
                    OFFSET 2.882643 -0.053652 -0.322543
                    CHANNELS 3 Zrotation Yrotation Xrotation
                    JOINT LeftHandRing2
                    {
                      OFFSET 5.854541 -0.486202 -1.373841
                      CHANNELS 3 Zrotation Yrotation Xrotation
                      JOINT LeftHandRing3
                      {
                        OFFSET 4.350578 0.0 3e-06
                        CHANNELS 3 Zrotation Yrotation Xrotation
                        JOINT LeftHandRing4
                        {
                          OFFSET 2.651321 7e-06 2e-06
                          CHANNELS 3 Zrotation Yrotation Xrotation
                          JOINT LeftHandRingEnd
                          {
                            OFFSET 1.936105 0.077687 -7.1e-05
                            CHANNELS 3 Zrotation Yrotation Xrotation
                          }
                        }
                      }
                    }
                  }
                  JOINT LeftHandPinky1
                  {
                    OFFSET 2.8655 -0.310005 -1.600378
                    CHANNELS 3 Zrotation Yrotation Xrotation
                    JOINT LeftHandPinky2
                    {
                      OFFSET 5.087849 -1.331141 -1.77123
                      CHANNELS 3 Zrotation Yrotation Xrotation
                      JOINT LeftHandPinky3
                      {
                        OFFSET 3.070974 4e-06 0.0
                        CHANNELS 3 Zrotation Yrotation Xrotation
                        JOINT LeftHandPinky4
                        {
                          OFFSET 1.549672 0.0 1e-06
                          CHANNELS 3 Zrotation Yrotation Xrotation
                          JOINT LeftHandPinkyEnd
                          {
                            OFFSET 1.944893 -0.157802 0.057219
                            CHANNELS 3 Zrotation Yrotation Xrotation
                          }
                        }
                      }
                    }
                  }
                }
              }
            }
          }
          JOINT RightShoulder
          {
            OFFSET -1.380118 23.180309 5.214158
            CHANNELS 3 Zrotation Yrotation Xrotation
            JOINT RightArm
            {
              OFFSET -15.037196 1.2e-05 -5.545604
              CHANNELS 3 Zrotation Yrotation Xrotation
              JOINT RightForeArm
              {
                OFFSET -28.736639 2e-06 -0.002597
                CHANNELS 3 Zrotation Yrotation Xrotation
                JOINT RightHand
                {
                  OFFSET -27.133619 -0.0 0.002613
                  CHANNELS 3 Zrotation Yrotation Xrotation
                  JOINT RightHandThumb1
                  {
                    OFFSET -2.274032 -1.383988 3.163127
                    CHANNELS 3 Zrotation Yrotation Xrotation
                    JOINT RightHandThumb2
                    {
                      OFFSET -4.011429 -1.827466 1.640914
                      CHANNELS 3 Zrotation Yrotation Xrotation
                      JOINT RightHandThumb3
                      {
                        OFFSET -2.794935 -4e-06 -3e-06
                        CHANNELS 3 Zrotation Yrotation Xrotation
                        JOINT RightHandThumbEnd
                        {
                          OFFSET -3.183852 4e-06 1e-06
                          CHANNELS 3 Zrotation Yrotation Xrotation
                        }
                      }
                    }
                  }
                  JOINT RightHandIndex1
                  {
                    OFFSET -3.253266 -0.520057 2.282866
                    CHANNELS 3 Zrotation Yrotation Xrotation
                    JOINT RightHandIndex2
                    {
                      OFFSET -6.341917 0.012471 0.178266
                      CHANNELS 3 Zrotation Yrotation Xrotation
                      JOINT RightHandIndex3
                      {
                        OFFSET -3.654871 -8e-06 -0.0
                        CHANNELS 3 Zrotation Yrotation Xrotation
                        JOINT RightHandIndex4
                        {
                          OFFSET -2.327586 0.0 1e-06
                          CHANNELS 3 Zrotation Yrotation Xrotation
                          JOINT RightHandIndexEnd
                          {
                            OFFSET -2.76179 -0.180656 -0.113078
                            CHANNELS 3 Zrotation Yrotation Xrotation
                          }
                        }
                      }
                    }
                  }
                  JOINT RightHandMiddle1
                  {
                    OFFSET -3.168106 0.246593 1.00103
                    CHANNELS 3 Zrotation Yrotation Xrotation
                    JOINT RightHandMiddle2
                    {
                      OFFSET -6.180828 -0.258836 -1.000895
                      CHANNELS 3 Zrotation Yrotation Xrotation
                      JOINT RightHandMiddle3
                      {
                        OFFSET -4.348901 0.0 -0.0
                        CHANNELS 3 Zrotation Yrotation Xrotation
                        JOINT RightHandMiddle4
                        {
                          OFFSET -3.00024 -4e-06 -2e-06
                          CHANNELS 3 Zrotation Yrotation Xrotation
                          JOINT RightHandMiddleEnd
                          {
                            OFFSET -2.30252 -0.29437 -0.031706
                            CHANNELS 3 Zrotation Yrotation Xrotation
                          }
                        }
                      }
                    }
                  }
                  JOINT RightHandRing1
                  {
                    OFFSET -2.88569 -0.067952 -0.308858
                    CHANNELS 3 Zrotation Yrotation Xrotation
                    JOINT RightHandRing2
                    {
                      OFFSET -5.854198 -0.48613 -1.373731
                      CHANNELS 3 Zrotation Yrotation Xrotation
                      JOINT RightHandRing3
                      {
                        OFFSET -4.33881 -4e-06 -0.0
                        CHANNELS 3 Zrotation Yrotation Xrotation
                        JOINT RightHandRing4
                        {
                          OFFSET -2.654903 -4e-06 4e-06
                          CHANNELS 3 Zrotation Yrotation Xrotation
                          JOINT RightHandRingEnd
                          {
                            OFFSET -1.933568 0.077527 -5.2e-05
                            CHANNELS 3 Zrotation Yrotation Xrotation
                          }
                        }
                      }
                    }
                  }
                  JOINT RightHandPinky1
                  {
                    OFFSET -2.866425 -0.342796 -1.584145
                    CHANNELS 3 Zrotation Yrotation Xrotation
                    JOINT RightHandPinky2
                    {
                      OFFSET -5.091371 -1.332055 -1.772385
                      CHANNELS 3 Zrotation Yrotation Xrotation
                      JOINT RightHandPinky3
                      {
                        OFFSET -3.062664 -4e-06 1e-06
                        CHANNELS 3 Zrotation Yrotation Xrotation
                        JOINT RightHandPinky4
                        {
                          OFFSET -1.546529 4e-06 -2e-06
                          CHANNELS 3 Zrotation Yrotation Xrotation
                          JOINT RightHandPinkyEnd
                          {
                            OFFSET -1.945119 -0.157718 0.057211
                            CHANNELS 3 Zrotation Yrotation Xrotation
                          }
                        }
                      }
                    }
                  }
                }
              }
            }
          }
        }
      }
    }
    JOINT LeftLeg
    {
      OFFSET 10.043214 -8.434526 2.595655
      CHANNELS 3 Zrotation Yrotation Xrotation
      JOINT LeftShin
      {
        OFFSET -1e-06 -43.221752 -0.802913
        CHANNELS 3 Zrotation Yrotation Xrotation
        JOINT LeftFoot
        {
          OFFSET 1e-06 -42.155094 -3.481523
          CHANNELS 3 Zrotation Yrotation Xrotation
          JOINT LeftToeBase
          {
            OFFSET 0.0 -5.059472 13.231529
            CHANNELS 3 Zrotation Yrotation Xrotation
            JOINT LeftToeEnd
            {
              OFFSET -0.009607 -1.647619 6.513017
              CHANNELS 3 Zrotation Yrotation Xrotation
            }
          }
        }
      }
    }
    JOINT RightLeg
    {
      OFFSET -10.047278 -8.29526 2.620317
      CHANNELS 3 Zrotation Yrotation Xrotation
      JOINT RightShin
      {
        OFFSET 1e-06 -43.362206 -0.805556
        CHANNELS 3 Zrotation Yrotation Xrotation
        JOINT RightFoot
        {
          OFFSET 2e-06 -42.117393 -3.478398
          CHANNELS 3 Zrotation Yrotation Xrotation
          JOINT RightToeBase
          {
            OFFSET -0.0 -5.079609 13.284196
            CHANNELS 3 Zrotation Yrotation Xrotation
            JOINT RightToeEnd
            {
              OFFSET 0.009532 -1.634378 6.460591
              CHANNELS 3 Zrotation Yrotation Xrotation
            }
          }
        }
      }
    }
  }
}
MOTION
Frames: 4
Frame Time: 0.03333333333333333
0.0 0.0 0.0 0.0 -0.0 0.0 -7.883406 98.271164 26.496136 174.069489 -14.108365 -172.982254 -5.435087 -1.147808 -4.820172 -1.344801 -1.54086 -6.390581 -1.333825 -3.318271 9.972891 0.905209 2.516168 14.577521 0.699394 4.409015 -3.767907 -0.691201 5.388697 -1.113575 7.7e-05 -2.3e-05 5e-06 0.008328 0.064431 -0.082868 0.771927 -3.613322 -10.715972 -0.752736 3.749313 -10.695893 -18.740887 -8.307571 13.478523 -53.426838 -21.435732 15.263134 0.523964 -29.717466 0.017612 -1.458402 -0.185727 1.11209 -5.882073 9.861532 0.702175 -10.937053 -0.360797 7.155975 -4e-06 8.774715 -8e-06 -15.936575 18.354578 6.303343 -1.84401 2.498497 -2.507243 -10.163476 4.678881 4.621158 -20.97575 1.3e-05 3.3e-05 -21.225952 2.45166 -3.593889 2e-06 -5e-06 -0.0 -1.362644 2.240694 -0.746286 -21.334688 0.585009 3.00835 -13.821044 1.3e-05 2.5e-05 -23.886761 -0.249041 -0.839396 -60.152802 2.698353 -0.965532 -0.293983 1.67955 0.833294 -14.218089 0.093352 1.30061 -34.211597 -0.287516 0.96721 -20.033003 0.964556 1.212846 -1e-06 -1e-06 -3e-06 -3.440234 0.788039 0.50176 -15.928153 -3.167089 2.999672 -6.338751 3e-06 1.3e-05 -18.123156 3.648181 -4.905556 -2e-06 2e-06 -6e-06 19.845491 6.302377 12.140056 59.830116 1.273957 -1.171245 -0.345554 38.951431 -0.206487 3.537929 8.48114 -9.334439 2.24355 -5.255294 -3.180451 14.282962 -0.826418 6.952354 -1.7e-05 -12.690473 6e-06 16.136288 -17.926662 2.623489 1.665651 -1.955922 -2.878273 4.727757 -4.170534 4.993944 11.020452 1.6e-05 1.1e-05 12.10895 -3.73563 -2.866733 2e-06 2e-06 -0.0 1.291952 -1.928457 -1.498056 14.800038 0.567385 3.865616 14.242461 -1.341707 -6.660598 19.631807 0.143962 -0.648185 50.196251 -0.531031 -6.128193 0.352987 -1.511023 -0.031908 20.222679 3.684167 2.316623 18.787148 1.3e-05 3e-05 10.751581 -0.479867 1.397912 6e-06 -0.0 1e-06 3.273679 0.306123 -0.580029 21.486757 11.830099 2.266072 8.162872 3e-06 1e-05 18.398945 -3.798944 -4.940485 3e-06 -0.0 -2e-06 -12.360146 7.837241 -6.972541 -0.018451 0.443213 9.693441 4.269152 6.07921 -8.433456 1.687313 -1.941065 0.37629 -0.0 2e-06 4e-06 -8.993224 -8.759189 -22.097559 -0.050037 -0.119919 45.437511 8.850867 1.602069 -10.834247 -1.445452 0.849108 -4.548377 0.0 1e-06 -0.0 
0.0 0.0 0.0 0.0 -0.0 0.0 -8.864861 98.345009 24.797991 174.804153 -14.334286 -173.05072 -5.231399 -1.147953 -4.654929 -1.29353 -1.751068 -6.3237 -0.923309 -3.382974 10.105247 1.268635 2.237099 14.460157 0.629082 3.999264 -3.768277 -0.655369 4.932995 -1.162151 7.7e-05 -2.2e-05 6e-06 0.007254 0.064504 -0.083936 0.766571 -3.614382 -10.712132 -0.748751 3.749099 -10.690897 -18.244331 -8.55604 13.35952 -54.046387 -21.891535 15.592362 0.625461 -31.15694 0.000334 -2.274179 -0.082342 0.850859 -5.882088 9.86132 0.702553 -10.936904 -0.360581 7.156204 3e-06 8.774816 -1e-06 -15.924126 18.302164 6.315301 -1.844025 2.498501 -2.50727 -10.163555 4.67893 4.621109 -20.975937 -1.2e-05 1e-05 -21.226196 2.451673 -3.593993 3e-06 -7e-06 -2e-06 -1.362666 2.240782 -0.746318 -21.334841 0.58491 3.00833 -13.821157 -6e-06 1.3e-05 -23.887064 -0.249089 -0.839451 -60.134304 2.662501 -1.010905 -0.294007 1.679667 0.83326 -14.218172 0.093219 1.300582 -34.211914 -0.287565 0.9672 -20.033169 0.964541 1.212866 -1e-06 1e-06 1e-06 -3.440333 0.788202 0.501675 -15.928177 -3.16729 2.999698 -6.338801 -4e-06 7e-06 -18.123369 3.648163 -4.905647 -3e-06 4e-06 -2e-06 20.035753 6.428718 12.204553 59.369843 1.685237 -0.759998 -0.211585 39.224277 -0.131851 3.330772 8.702292 -9.085319 2.2435 -5.254939 -3.179979 14.282797 -0.826643 6.952625 -8e-06 -12.690634 2e-06 16.092676 -17.998232 2.640604 1.665676 -1.955924 -2.878314 4.727822 -4.170606 4.993897 11.020588 1.1e-05 -1.9e-05 12.109192 -3.735716 -2.866872 2e-06 -1e-06 -1e-06 1.292001 -1.928571 -1.498113 14.800172 0.567491 3.865589 14.24265 -1.341727 -6.660717 19.632208 0.143971 -0.648327 50.190006 -0.579911 -6.137628 0.35305 -1.51118 -0.031969 20.222847 3.684349 2.316615 18.787378 2.2e-05 -2.6e-05 10.751688 -0.479862 1.397913 3e-06 3e-06 -2e-06 3.273864 0.305904 -0.58017 21.486822 11.830437 2.26614 8.162966 7e-06 -1e-05 18.399261 -3.798943 -4.940666 5e-06 -1e-06 -5e-06 -11.698194 8.115442 -5.536181 -0.028873 0.440367 8.897305 4.271108 5.794507 -8.885976 1.690422 -1.949165 0.179971 -1e-06 -3e-06 3e-06 -6.647871 -8.820147 -25.083399 -0.130005 -0.299061 41.588947 6.801304 -2.228145 -11.302474 -1.458456 0.944902 -4.75233 0.0 -0.0 -5e-06 
0.0 0.0 0.0 0.0 -0.0 0.0 -9.813896 98.319885 23.043636 175.34198 -14.854535 -173.011261 -5.069147 -1.1252 -4.544657 -1.256838 -1.948328 -6.272246 -0.625018 -3.42261 10.28868 1.710782 1.913614 14.322611 0.5086 3.566291 -3.756247 -0.563717 4.368447 -1.279301 7.7e-05 -2.2e-05 6e-06 0.004921 0.065515 -0.081315 0.758363 -3.613621 -10.702341 -0.74452 3.748799 -10.680725 -17.959965 -8.73814 13.303644 -54.6082 -22.159485 16.215036 0.721202 -32.727352 -0.050113 -3.352146 -0.040237 0.359937 -5.88216 9.860966 0.703082 -10.936747 -0.360428 7.156445 -3.2e-05 8.774937 -1.5e-05 -15.924658 18.283222 6.312875 -1.844047 2.498518 -2.507309 -10.163724 4.679051 4.621045 -20.976328 5.8e-05 -2.7e-05 -21.226797 2.451828 -3.594234 3e-06 -8e-06 -3e-06 -1.362731 2.240916 -0.74637 -21.335089 0.584864 3.008317 -13.821403 3.9e-05 -1.9e-05 -23.887794 -0.249004 -0.839675 -60.140179 2.594494 -1.062535 -0.294092 1.679849 0.83321 -14.218266 0.093087 1.300584 -34.212582 -0.287481 0.967112 -20.033541 0.964577 1.212828 -1e-06 -2e-06 0.0 -3.440572 0.788491 0.501551 -15.928129 -3.167559 2.999787 -6.33891 1.8e-05 -1e-05 -18.123898 3.648269 -4.905875 -0.0 3e-06 -3e-06 20.294176 6.498684 12.29452 58.86298 1.797858 0.026531 -0.091731 39.176502 -0.070794 3.428363 8.917341 -8.547618 2.243573 -5.254709 -3.179791 14.282822 -0.826802 6.952691 5e-06 -12.690761 -1.3e-05 16.074671 -18.03101 2.637346 1.665673 -1.955925 -2.878325 4.727828 -4.17065 4.993887 11.020617 5e-06 -2e-06 12.109236 -3.735804 -2.866901 1e-06 -1e-06 0.0 1.292003 -1.928651 -1.498124 14.800202 0.56757 3.865614 14.242687 -1.34176 -6.660739 19.632296 0.143924 -0.648312 50.191269 -0.60568 -6.142402 0.353051 -1.51129 -0.031974 20.222883 3.684489 2.316664 18.787436 -2e-06 4e-06 10.751719 -0.479874 1.397948 3e-06 1e-06 -3e-06 3.273888 0.305754 -0.580186 21.486853 11.830696 2.266233 8.162997 2e-06 2e-06 18.399366 -3.799014 -4.940686 -0.0 -2e-06 2e-06 -11.181561 8.242197 -4.164198 -0.019479 0.44122 8.231001 4.249349 5.449643 -9.39478 1.691168 -1.942767 0.045303 -0.0 0.0 -3e-06 -4.779716 -8.25631 -27.839144 -0.14951 -0.342827 36.980358 5.332453 -4.702879 -10.279984 -1.45919 1.056606 -4.70996 0.0 -0.0 -2e-06 
0.0 0.0 0.0 0.0 -0.0 0.0 -10.705892 98.199188 21.222258 175.665756 -15.665898 -172.888 -4.961431 -1.07999 -4.453522 -1.227749 -2.131728 -6.234189 -0.453436 -3.472836 10.491442 2.227488 1.551791 14.165681 0.356166 3.121212 -3.745304 -0.430899 3.71843 -1.421758 7.7e-05 -2.2e-05 6e-06 0.004945 0.053778 -0.076447 0.748971 -3.622057 -10.685228 -0.734473 3.732197 -10.662659 -17.921459 -8.886947 13.321935 -55.014637 -22.262568 17.021948 0.71221 -34.088722 -0.074879 -4.565104 0.032135 -0.079626 -5.882207 9.861314 0.702652 -10.936923 -0.360595 7.156204 1e-05 8.774802 1e-06 -15.941612 18.285099 6.298909 -1.84402 2.498496 -2.50727 -10.16356 4.67891 4.621122 -20.975977 -1.8e-05 5.8e-05 -21.226236 2.451686 -3.593929 -1e-06 -6e-06 -0.0 -1.362654 2.240759 -0.746318 -21.334873 0.584913 3.008354 -13.821187 -6e-06 4e-05 -23.887161 -0.249063 -0.839396 -60.167267 2.493219 -1.087875 -0.293992 1.679638 0.833264 -14.218192 0.093239 1.30059 -34.211994 -0.28755 0.967276 -20.033226 0.964573 1.212905 -3e-06 -3e-06 -4e-06 -3.440323 0.788147 0.501691 -15.9282 -3.167248 2.999696 -6.338817 -6e-06 1.8e-05 -18.123423 3.648165 -4.905604 -5e-06 -0.0 0.0 20.627905 6.468179 12.361419 58.383537 1.665135 1.052685 -0.075611 38.669258 -0.068923 3.747974 9.028131 -7.917319 2.24359 -5.255099 -3.180117 14.282896 -0.826598 6.952529 -1.3e-05 -12.690589 1.4e-05 16.032846 -18.023531 2.658854 1.665661 -1.955922 -2.878299 4.727793 -4.17057 4.993921 11.020535 1.3e-05 8e-06 12.109086 -3.735696 -2.866787 3e-06 3e-06 2e-06 1.291974 -1.928526 -1.498086 14.80012 0.567457 3.865607 14.242568 -1.341719 -6.660646 19.632042 0.143942 -0.648228 50.218258 -0.632819 -6.132022 0.353016 -1.511113 -0.031936 20.222784 3.68429 2.316628 18.787285 5e-06 2.3e-05 10.751646 -0.479876 1.39792 5e-06 3e-06 -1e-06 3.273783 0.305996 -0.580091 21.486801 11.830327 2.266106 8.162937 1e-06 7e-06 18.399155 -3.798967 -4.940567 0.0 -1e-06 -3e-06 -10.798687 8.315186 -2.810602 -0.001934 0.424887 7.715429 4.217404 4.987777 -9.99966 1.691985 -1.925575 -0.096736 -0.0 0.0 -1e-06 -3.472264 -7.457045 -30.120579 -0.128001 -0.307285 31.458008 4.172071 -6.167349 -8.181319 -1.449463 1.161107 -4.628416 -0.0 -0.0 3e-06 
